<svg width="100" height="100" viewBox="0 0 100 100" fill="none" xmlns="http://www.w3.org/2000/svg">
<g clip-path="url(#clip0_63_789)">
<path d="M39.8312 44.5312V29.1125H50.9562C57.0375 29.1125 60.5937 31.9687 60.5937 36.8437C60.5937 41.8562 56.8187 44.5312 49.5687 44.5312H39.8312ZM39.8312 68.0437H51.6937C59.0937 68.0437 63.0062 65.0437 63.0062 59.4375C63.0062 53.9062 58.9437 51.0125 51.2187 51.0125H39.8312V68.0437Z" fill="#6E2CF2"/>
<path d="M25 0C18.3696 0 12.0107 2.63392 7.32233 7.32233C2.63392 12.0107 0 18.3696 0 25V75C0 81.6304 2.63392 87.9893 7.32233 92.6777C12.0107 97.3661 18.3696 100 25 100H75C81.6304 100 87.9893 97.3661 92.6777 92.6777C97.3661 87.9893 100 81.6304 100 75V25C100 18.3696 97.3661 12.0107 92.6777 7.32233C87.9893 2.63392 81.6304 0 75 0L25 0ZM31.625 75V22.1563H52.8688C62.7875 22.1563 68.7625 27.2125 68.7625 35.3438C68.7625 40.8688 64.7 45.8125 59.4938 46.6938V47.3188C66.6375 48.05 71.3938 53.1375 71.3938 60.025C71.3938 69.325 64.6187 75 53.3437 75H31.625Z" fill="#6E2CF2"/>
</g>
<defs>
<clipPath id="clip0_63_789">
<rect width="100" height="100" fill="white"/>
</clipPath>
</defs>
</svg>
