<svg width="432" height="172" viewBox="0 0 432 172" fill="none" xmlns="http://www.w3.org/2000/svg">
<g clip-path="url(#clip0_4_21)">
<rect y="82" width="100" height="30" rx="15" transform="rotate(-30 0 82)" fill="#AD00FF"/>
<rect y="82" width="100" height="30" rx="15" transform="rotate(-30 0 82)" fill="url(#paint0_linear_4_21)"/>
<rect x="15.1607" y="66.9716" width="100" height="30" rx="15" transform="rotate(30 15.1607 66.9716)" fill="url(#paint1_linear_4_21)"/>
<path d="M164.652 160.781C163.155 160.26 159.965 160 155.082 160H115.238C111.853 160 109.151 159.479 107.133 158.438C105.115 157.331 104.105 155.345 104.105 152.48C104.105 150.397 104.594 148.737 105.57 147.5C108.044 148.151 110.421 148.477 112.699 148.477C114.978 148.477 116.768 148.249 118.07 147.793C119.372 147.272 120.512 146.393 121.488 145.156C123.441 142.552 124.418 138.223 124.418 132.168V32.2656C124.223 27.7083 122.725 24.8112 119.926 23.5742C119.079 23.1836 117.908 22.8255 116.41 22.5C114.978 22.1745 113.546 21.849 112.113 21.5234C110.746 21.1328 109.574 20.6771 108.598 20.1562C106.645 19.1146 105.668 17.7474 105.668 16.0547C105.668 12.9948 106.189 10.8138 107.23 9.51172C108.728 10.0326 111.951 10.293 116.898 10.293H129.594L163.871 9.31641L168.07 9.21875C188.122 9.21875 203.129 12.7995 213.09 19.9609C223.051 27.0573 228.031 37.0833 228.031 50.0391C228.031 59.7396 224.874 68.6589 218.559 76.7969C211.527 85.8464 201.827 91.9661 189.457 95.1562C192.842 97.5 196.684 101.797 200.98 108.047L211.332 123.184C221.033 137.311 229.073 144.375 235.453 144.375C237.862 144.375 239.685 144.147 240.922 143.691L243.363 142.715C243.884 142.52 244.47 142.422 245.121 142.422C245.772 142.422 246.456 142.943 247.172 143.984C247.888 144.961 248.246 146.1 248.246 147.402C248.246 148.704 247.693 150.267 246.586 152.09C245.479 153.848 243.917 155.443 241.898 156.875C237.341 160.195 232.361 161.855 226.957 161.855C221.553 161.855 217.094 160.944 213.578 159.121C210.128 157.298 206.938 154.922 204.008 151.992C201.143 148.997 198.507 145.612 196.098 141.836C193.754 138.06 191.54 134.186 189.457 130.215L183.695 118.594C179.594 110.13 176.306 104.694 173.832 102.285C171.423 99.8112 169.21 98.5742 167.191 98.5742H157.328C155.701 98.5742 154.887 97.4023 154.887 95.0586C154.887 91.8034 156.124 89.2643 158.598 87.4414C159.444 86.8555 161.983 86.5299 166.215 86.4648C170.447 86.3346 175.199 85.4232 180.473 83.7305C185.811 82.0378 190.206 79.7266 193.656 76.7969C200.362 71.0026 203.715 62.8646 203.715 52.3828C203.715 43.5938 200.785 36.3997 194.926 30.8008C188.285 24.4857 179.04 21.263 167.191 21.1328C159.379 21.1328 154.171 22.3047 151.566 24.6484C148.962 26.862 147.595 31.0612 147.465 37.2461V136.953C147.465 142.096 148.897 145.352 151.762 146.719C152.673 147.109 153.878 147.467 155.375 147.793C156.872 148.118 158.305 148.477 159.672 148.867C161.104 149.193 162.309 149.616 163.285 150.137C165.238 151.178 166.215 152.578 166.215 154.336C166.215 157.331 165.694 159.479 164.652 160.781Z" fill="#AD00FF"/>
<path d="M164.652 160.781C163.155 160.26 159.965 160 155.082 160H115.238C111.853 160 109.151 159.479 107.133 158.438C105.115 157.331 104.105 155.345 104.105 152.48C104.105 150.397 104.594 148.737 105.57 147.5C108.044 148.151 110.421 148.477 112.699 148.477C114.978 148.477 116.768 148.249 118.07 147.793C119.372 147.272 120.512 146.393 121.488 145.156C123.441 142.552 124.418 138.223 124.418 132.168V32.2656C124.223 27.7083 122.725 24.8112 119.926 23.5742C119.079 23.1836 117.908 22.8255 116.41 22.5C114.978 22.1745 113.546 21.849 112.113 21.5234C110.746 21.1328 109.574 20.6771 108.598 20.1562C106.645 19.1146 105.668 17.7474 105.668 16.0547C105.668 12.9948 106.189 10.8138 107.23 9.51172C108.728 10.0326 111.951 10.293 116.898 10.293H129.594L163.871 9.31641L168.07 9.21875C188.122 9.21875 203.129 12.7995 213.09 19.9609C223.051 27.0573 228.031 37.0833 228.031 50.0391C228.031 59.7396 224.874 68.6589 218.559 76.7969C211.527 85.8464 201.827 91.9661 189.457 95.1562C192.842 97.5 196.684 101.797 200.98 108.047L211.332 123.184C221.033 137.311 229.073 144.375 235.453 144.375C237.862 144.375 239.685 144.147 240.922 143.691L243.363 142.715C243.884 142.52 244.47 142.422 245.121 142.422C245.772 142.422 246.456 142.943 247.172 143.984C247.888 144.961 248.246 146.1 248.246 147.402C248.246 148.704 247.693 150.267 246.586 152.09C245.479 153.848 243.917 155.443 241.898 156.875C237.341 160.195 232.361 161.855 226.957 161.855C221.553 161.855 217.094 160.944 213.578 159.121C210.128 157.298 206.938 154.922 204.008 151.992C201.143 148.997 198.507 145.612 196.098 141.836C193.754 138.06 191.54 134.186 189.457 130.215L183.695 118.594C179.594 110.13 176.306 104.694 173.832 102.285C171.423 99.8112 169.21 98.5742 167.191 98.5742H157.328C155.701 98.5742 154.887 97.4023 154.887 95.0586C154.887 91.8034 156.124 89.2643 158.598 87.4414C159.444 86.8555 161.983 86.5299 166.215 86.4648C170.447 86.3346 175.199 85.4232 180.473 83.7305C185.811 82.0378 190.206 79.7266 193.656 76.7969C200.362 71.0026 203.715 62.8646 203.715 52.3828C203.715 43.5938 200.785 36.3997 194.926 30.8008C188.285 24.4857 179.04 21.263 167.191 21.1328C159.379 21.1328 154.171 22.3047 151.566 24.6484C148.962 26.862 147.595 31.0612 147.465 37.2461V136.953C147.465 142.096 148.897 145.352 151.762 146.719C152.673 147.109 153.878 147.467 155.375 147.793C156.872 148.118 158.305 148.477 159.672 148.867C161.104 149.193 162.309 149.616 163.285 150.137C165.238 151.178 166.215 152.578 166.215 154.336C166.215 157.331 165.694 159.479 164.652 160.781Z" fill="url(#paint2_linear_4_21)"/>
<rect width="96.8035" height="29.6838" rx="14.8419" transform="matrix(-0.856281 -0.51651 -0.483669 0.875251 432.371 81)" fill="#AD00FF"/>
<rect width="96.8035" height="29.6838" rx="14.8419" transform="matrix(-0.856281 -0.51651 -0.483669 0.875251 432.371 81)" fill="url(#paint3_linear_4_21)"/>
<rect width="96.8035" height="29.6838" rx="14.8419" transform="matrix(-0.856281 0.51651 0.483669 0.875251 417.86 65.9716)" fill="#AD00FF"/>
<rect width="96.8035" height="29.6838" rx="14.8419" transform="matrix(-0.856281 0.51651 0.483669 0.875251 417.86 65.9716)" fill="url(#paint4_linear_4_21)"/>
<rect x="261" y="151.501" width="150" height="23" rx="11.5" transform="rotate(-69.5 261 151.501)" fill="url(#paint5_linear_4_21)"/>
</g>
<defs>
<linearGradient id="paint0_linear_4_21" x1="97.6308" y1="113.423" x2="-26.7169" y2="113.046" gradientUnits="userSpaceOnUse">
<stop offset="0.329772" stop-color="#CC00FF"/>
<stop offset="1" stop-color="#0029FF"/>
</linearGradient>
<linearGradient id="paint1_linear_4_21" x1="112.791" y1="98.3945" x2="-11.5562" y2="98.0179" gradientUnits="userSpaceOnUse">
<stop offset="0.329772" stop-color="#CC00FF"/>
<stop offset="1" stop-color="#0029FF"/>
</linearGradient>
<linearGradient id="paint2_linear_4_21" x1="152.5" y1="-26" x2="-3.56273" y2="186.755" gradientUnits="userSpaceOnUse">
<stop offset="0.329772" stop-color="#CC00FF"/>
<stop offset="1" stop-color="#0029FF"/>
</linearGradient>
<linearGradient id="paint3_linear_4_21" x1="94.5101" y1="31.0917" x2="-25.863" y2="30.7351" gradientUnits="userSpaceOnUse">
<stop offset="0.329772" stop-color="#CC00FF"/>
<stop offset="1" stop-color="#0029FF"/>
</linearGradient>
<linearGradient id="paint4_linear_4_21" x1="94.5101" y1="31.0917" x2="-25.863" y2="30.7351" gradientUnits="userSpaceOnUse">
<stop offset="0.329772" stop-color="#CC00FF"/>
<stop offset="1" stop-color="#0029FF"/>
</linearGradient>
<linearGradient id="paint5_linear_4_21" x1="407.446" y1="175.592" x2="220.929" y2="174.487" gradientUnits="userSpaceOnUse">
<stop offset="0.414608" stop-color="#CC00FF"/>
<stop offset="1" stop-color="#0029FF"/>
</linearGradient>
<clipPath id="clip0_4_21">
<rect width="432" height="172" rx="86" fill="white"/>
</clipPath>
</defs>
</svg>
