<svg width="254" height="323" viewBox="0 0 254 323" fill="none" xmlns="http://www.w3.org/2000/svg">
<g clip-path="url(#clip0_63_789)">
<path opacity="0.4" d="M37.771 275.936L27 269.774L43.1162 260.551L53.8822 266.708L37.771 275.936Z" fill="#D6D8E5"/>
<path d="M37.9929 263.516L29.0725 258.367L37.9929 253.219L46.9082 258.367L37.9929 263.516Z" fill="#D6D8E5"/>
<path d="M37.9929 273.813L29.0725 268.664V258.367L37.9929 263.516V273.813Z" fill="#B1B6C4"/>
<path d="M46.9133 268.664L37.9929 273.813V263.516L46.9133 258.367V268.664Z" fill="#C4C7D6"/>
<path d="M49.9792 265.447C50.7505 265.662 51.5756 265.562 52.2736 265.17C52.8282 265.17 55.8336 263.904 56.2421 264.983C56.6001 265.926 55.2991 266.804 54.6032 266.97C53.0905 267.338 51.9609 268.095 51.3508 268.226C51.1184 268.309 50.8691 268.334 50.6248 268.299C50.3804 268.264 50.1484 268.17 49.9489 268.024C49.5152 267.57 49.5556 265.987 49.9792 265.447Z" fill="#38226D"/>
<path d="M51.3508 267.938C51.9609 267.807 53.0854 267.051 54.6033 266.683C55.1832 266.542 56.1866 265.906 56.2875 265.145C56.4236 266.017 55.2487 266.789 54.6033 266.945C53.0905 267.313 51.9609 268.069 51.3508 268.201C51.1184 268.284 50.8691 268.309 50.6248 268.274C50.3804 268.239 50.1484 268.144 49.9489 267.999C49.8528 267.897 49.785 267.772 49.7523 267.636C49.9766 267.807 50.238 267.924 50.5156 267.977C50.7932 268.029 51.0792 268.016 51.3508 267.938V267.938Z" fill="#9C73FF"/>
<path d="M44.5634 262.538C45.3348 262.753 46.1598 262.653 46.8578 262.26C47.4125 262.26 50.3876 260.995 50.8213 262.074C51.1793 263.017 49.8783 263.894 49.1875 264.061C47.6747 264.429 46.5452 265.185 45.935 265.316C45.7026 265.399 45.4534 265.425 45.209 265.39C44.9647 265.354 44.7326 265.26 44.5332 265.114C44.0995 264.686 44.1449 263.102 44.5634 262.538Z" fill="#38226D"/>
<path d="M45.935 265.054C46.5452 264.923 47.6697 264.166 49.1875 263.798C49.7674 263.657 50.7709 263.022 50.8717 262.26C51.0079 263.133 49.8329 263.904 49.1875 264.061C47.6747 264.429 46.5452 265.185 45.935 265.316C45.7026 265.399 45.4534 265.425 45.209 265.39C44.9647 265.354 44.7326 265.26 44.5332 265.114C44.4382 265.014 44.3705 264.891 44.3365 264.756C44.5617 264.927 44.8233 265.042 45.1007 265.094C45.3781 265.145 45.6637 265.132 45.935 265.054V265.054Z" fill="#9C73FF"/>
<path d="M36.1271 258.801C38.4719 259.81 40.6655 259.991 42.4859 259.023L44.3516 257.944C44.4626 260.354 44.5685 262.669 44.5685 262.669C44.5685 262.669 46.0006 263.753 47.0898 262.785C47.0898 262.785 47.3217 259.406 47.5587 256.078L49.5153 254.949C49.4681 255.126 49.4427 255.309 49.4396 255.493C49.4396 256.124 49.8935 265.518 49.8935 265.518C49.8935 265.518 51.3356 266.375 52.4501 265.412C52.4501 265.412 53.2014 254.525 53.3729 252.805C53.5645 250.849 51.3962 249.886 50.0195 250.385L47.9218 251.167L48.0226 249.956C48.2193 248 46.0459 247.037 44.6744 247.536C43.4238 247.995 34.9724 251.162 34.9724 251.162C35.025 251.975 35.1243 252.785 35.2699 253.587L31.9317 253.305C31.7552 256.426 33.7874 257.772 36.1271 258.801ZM41.9564 253.39L44.1903 252.105C44.153 252.262 44.1294 252.422 44.1197 252.584L41.9564 253.39Z" fill="#6889CA"/>
<path d="M30.1264 243.764C30.1264 243.764 30.3987 247.914 30.9433 248.514C31.4879 249.114 33.3335 249.523 33.3335 249.523L34.7505 251.832C34.7505 251.832 33.4545 244.43 33.1722 244.268C32.8898 244.107 30.1264 243.764 30.1264 243.764Z" fill="#FFCEA9"/>
<path d="M32.8545 239.15C32.5109 238.99 32.1205 238.96 31.7566 239.067C31.3927 239.174 31.0802 239.409 30.8778 239.73C30.3735 240.592 29.8138 243.562 29.7634 244.067C29.9729 244.35 30.2506 244.575 30.5706 244.722C30.8905 244.87 31.2425 244.934 31.5938 244.909L32.8545 239.15Z" fill="#EDEDED"/>
<path d="M33.3537 239.226C34.0697 239.261 34.6043 239.443 34.695 239.226C34.7719 238.856 34.8258 238.482 34.8564 238.106C34.7757 237.894 34.7051 237.673 34.7051 237.673C33.8025 237.118 33.5201 236.16 33.3991 235.01C33.1974 233.069 34.2462 231.374 36.1826 231.173C38.008 230.981 39.3494 232.262 39.7124 234.022C39.904 234.889 40.2873 236.543 39.7679 237.96C39.4805 238.757 39.1073 239.392 38.7594 239.513C38.3981 239.506 38.0377 239.475 37.6803 239.422V239.422C37.6803 239.422 37.5844 239.962 37.5189 240.305C37.4533 240.648 37.4735 240.834 38.1643 241.258C38.8552 241.681 37.1256 242.554 35.996 242.468C34.8665 242.382 33.5957 241.702 33.2478 240.955C32.8293 240.138 32.8595 239.18 33.3537 239.226Z" fill="#FFCEA9"/>
<path d="M51.5373 251.908C51.5369 252.01 51.5097 252.111 51.4584 252.199C51.4071 252.288 51.3335 252.361 51.2449 252.412L45.7736 255.569C45.6849 255.621 45.5839 255.648 45.4812 255.648C45.3784 255.648 45.2774 255.621 45.1887 255.569L37.5239 251.141C37.4347 251.091 37.3605 251.018 37.309 250.929C37.2576 250.84 37.2308 250.74 37.2315 250.637V250.597L51.5373 251.908Z" fill="#E5E5E5"/>
<path d="M51.2449 252.412L45.7736 255.569C45.6855 255.622 45.5843 255.65 45.4812 255.649V251.908H51.5323C51.5324 252.01 51.506 252.11 51.4555 252.198C51.4051 252.287 51.3325 252.36 51.2449 252.412V252.412Z" fill="#E5E5E5"/>
<path d="M45.6879 255.281C45.6262 255.318 45.5556 255.338 45.4837 255.338C45.4118 255.338 45.3412 255.318 45.2795 255.281L37.3071 250.683C37.2062 250.622 37.2062 250.526 37.3071 250.471L43.1767 247.077L51.5373 251.908L45.6879 255.281Z" fill="#F4F4F4"/>
<path d="M40.5797 251.908L40.6201 251.928L43.1767 253.406L44.5785 252.594L44.6189 252.574L42.0219 251.076L40.5797 251.908Z" fill="#BFBFBF"/>
<path d="M40.6201 251.928L43.1767 253.406L44.5785 252.594L42.0219 251.121L40.6201 251.928Z" fill="#E5E5E5"/>
<path d="M49.369 252.145L49.7371 252.357C49.7549 252.366 49.7749 252.371 49.7951 252.371C49.8154 252.371 49.8353 252.366 49.8531 252.357L50.2061 252.155C50.2414 252.155 50.2464 252.105 50.2061 252.089L49.838 251.873C49.8198 251.864 49.8 251.86 49.78 251.86C49.7599 251.86 49.7401 251.864 49.722 251.873L49.369 252.079C49.3438 252.099 49.3388 252.13 49.369 252.145Z" fill="#3A2C6D"/>
<path d="M48.8496 251.832L49.2177 252.044C49.2355 252.054 49.2555 252.059 49.2757 252.059C49.296 252.059 49.3159 252.054 49.3337 252.044L49.6867 251.842C49.722 251.842 49.722 251.792 49.6867 251.777L49.3186 251.565C49.3008 251.555 49.2809 251.55 49.2606 251.55C49.2403 251.55 49.2204 251.555 49.2026 251.565L48.8496 251.767C48.8244 251.797 48.8194 251.832 48.8496 251.832Z" fill="#3A2C6D"/>
<path d="M48.3252 251.545L48.6933 251.757C48.7123 251.765 48.7329 251.77 48.7538 251.77C48.7747 251.77 48.7953 251.765 48.8143 251.757L49.1623 251.555C49.1976 251.555 49.2026 251.504 49.1623 251.484L48.7942 251.273C48.7764 251.263 48.7564 251.258 48.7362 251.258C48.7159 251.258 48.696 251.263 48.6782 251.273L48.3252 251.474C48.3 251.494 48.2949 251.525 48.3252 251.545Z" fill="#3A2C6D"/>
<path d="M47.8058 251.242L48.1739 251.454C48.1921 251.463 48.2119 251.467 48.2319 251.467C48.252 251.467 48.2718 251.463 48.2899 251.454L48.6429 251.252C48.6782 251.252 48.6832 251.202 48.6429 251.182L48.2748 250.97C48.2558 250.961 48.2351 250.957 48.2143 250.957C48.1934 250.957 48.1727 250.961 48.1537 250.97L47.8058 251.172C47.7806 251.192 47.7755 251.222 47.8058 251.242Z" fill="#3A2C6D"/>
<path d="M47.2814 250.94L47.6545 251.151C47.6723 251.161 47.6923 251.166 47.7125 251.166C47.7328 251.166 47.7527 251.161 47.7705 251.151L48.1184 250.95C48.1537 250.95 48.1588 250.899 48.1184 250.884L47.7503 250.667C47.7322 250.659 47.7124 250.654 47.6923 250.654C47.6723 250.654 47.6525 250.659 47.6344 250.667L47.2814 250.874C47.2562 250.894 47.2511 250.925 47.2814 250.94Z" fill="#3A2C6D"/>
<path d="M46.762 250.637L47.1301 250.854C47.1482 250.863 47.168 250.867 47.1881 250.867C47.2081 250.867 47.2279 250.863 47.2461 250.854L47.5991 250.647C47.6344 250.647 47.6394 250.597 47.5991 250.582L47.231 250.37C47.2123 250.36 47.1915 250.355 47.1704 250.355C47.1494 250.355 47.1286 250.36 47.1099 250.37L46.762 250.572C46.7368 250.592 46.7317 250.622 46.762 250.637Z" fill="#3A2C6D"/>
<path d="M46.2426 250.319L46.6107 250.531C46.6289 250.54 46.6487 250.544 46.6687 250.544C46.6888 250.544 46.7086 250.54 46.7267 250.531L47.0797 250.33C47.115 250.33 47.115 250.279 47.0797 250.259L46.7116 250.047C46.6934 250.039 46.6736 250.034 46.6536 250.034C46.6335 250.034 46.6137 250.039 46.5956 250.047L46.2426 250.249C46.2123 250.289 46.2123 250.319 46.2426 250.319Z" fill="#3A2C6D"/>
<path d="M45.7182 250.037L46.0863 250.249C46.1041 250.259 46.124 250.264 46.1443 250.264C46.1645 250.264 46.1845 250.259 46.2023 250.249L46.5552 250.047C46.5905 250.047 46.5956 249.997 46.5552 249.982L46.1871 249.765C46.169 249.756 46.1492 249.752 46.1291 249.752C46.1091 249.752 46.0893 249.756 46.0712 249.765L45.7182 249.972C45.693 249.992 45.6879 250.022 45.7182 250.037Z" fill="#3A2C6D"/>
<path d="M45.1988 249.735L45.5669 249.946C45.5847 249.956 45.6046 249.961 45.6249 249.961C45.6451 249.961 45.6651 249.956 45.6829 249.946L46.0359 249.745C46.0711 249.745 46.0711 249.694 46.0359 249.679L45.6577 249.462C45.6399 249.452 45.6199 249.447 45.5997 249.447C45.5794 249.447 45.5595 249.452 45.5417 249.462L45.1887 249.664C45.1534 249.689 45.1534 249.719 45.1988 249.735Z" fill="#3A2C6D"/>
<path d="M44.6743 249.437L45.0425 249.649C45.0615 249.657 45.0821 249.662 45.103 249.662C45.1238 249.662 45.1445 249.657 45.1635 249.649L45.5114 249.447C45.5467 249.447 45.5518 249.397 45.5114 249.376L45.1534 249.16C45.1356 249.15 45.1157 249.145 45.0954 249.145C45.0751 249.145 45.0552 249.15 45.0374 249.16L44.6844 249.361C44.6491 249.387 44.6491 249.417 44.6743 249.437Z" fill="#3A2C6D"/>
<path d="M44.1449 249.134L44.513 249.346C44.5311 249.355 44.5509 249.359 44.571 249.359C44.591 249.359 44.6108 249.355 44.629 249.346L44.9819 249.145C45.0172 249.145 45.0223 249.094 44.9819 249.074L44.6491 248.857C44.6301 248.848 44.6095 248.844 44.5886 248.844C44.5677 248.844 44.5471 248.848 44.5281 248.857L44.1802 249.059C44.1449 249.084 44.1449 249.114 44.1449 249.134Z" fill="#3A2C6D"/>
<path d="M43.6406 248.832L44.0138 249.044C44.0315 249.053 44.0515 249.058 44.0717 249.058C44.092 249.058 44.112 249.053 44.1297 249.044L44.4827 248.842C44.513 248.842 44.518 248.792 44.4827 248.776L44.1146 248.56C44.0965 248.551 44.0767 248.547 44.0566 248.547C44.0366 248.547 44.0168 248.551 43.9986 248.56L43.6456 248.766C43.6053 248.807 43.6053 248.807 43.6406 248.832Z" fill="#3A2C6D"/>
<path d="M43.1364 248.529L43.5045 248.746C43.5226 248.755 43.5424 248.759 43.5625 248.759C43.5825 248.759 43.6023 248.755 43.6204 248.746L43.9734 248.539C44.0087 248.539 44.0138 248.489 43.9734 248.474L43.6053 248.262C43.5866 248.252 43.5659 248.247 43.5448 248.247C43.5237 248.247 43.503 248.252 43.4843 248.262L43.1364 248.464C43.0859 248.484 43.0809 248.514 43.1364 248.529Z" fill="#3A2C6D"/>
<path d="M42.3396 248.086L42.9599 248.444C42.978 248.452 42.9978 248.457 43.0179 248.457C43.0379 248.457 43.0577 248.452 43.0758 248.444L43.4288 248.242C43.4641 248.242 43.4641 248.191 43.4288 248.171L42.8136 247.798C42.7955 247.79 42.7757 247.785 42.7556 247.785C42.7356 247.785 42.7158 247.79 42.6977 247.798L42.3447 248.005C42.3394 248.005 42.3341 248.005 42.329 248.007C42.324 248.009 42.3194 248.011 42.3154 248.015C42.3114 248.018 42.3082 248.023 42.3058 248.027C42.3035 248.032 42.3021 248.037 42.3018 248.043C42.3015 248.048 42.3022 248.053 42.3039 248.058C42.3056 248.063 42.3083 248.068 42.3118 248.072C42.3154 248.076 42.3196 248.079 42.3244 248.082C42.3291 248.084 42.3343 248.085 42.3396 248.086V248.086Z" fill="#3A2C6D"/>
<path d="M48.0882 251.989L48.4613 252.2C48.4791 252.21 48.4991 252.215 48.5193 252.215C48.5396 252.215 48.5595 252.21 48.5773 252.2L48.9303 251.999C48.9606 251.999 48.9656 251.948 48.9303 251.933L48.5622 251.721C48.5444 251.712 48.5245 251.706 48.5042 251.706C48.4839 251.706 48.464 251.712 48.4462 251.721L48.0932 251.923C48.063 251.943 48.063 251.973 48.0882 251.989Z" fill="#3A2C6D"/>
<path d="M47.5688 251.686L47.9369 251.903C47.9551 251.911 47.9749 251.916 47.9949 251.916C48.015 251.916 48.0348 251.911 48.0529 251.903L48.4059 251.696C48.4412 251.696 48.4462 251.646 48.4059 251.631L48.0378 251.419C48.0191 251.409 47.9983 251.404 47.9773 251.404C47.9562 251.404 47.9354 251.409 47.9167 251.419L47.5688 251.62C47.5436 251.641 47.5385 251.671 47.5688 251.686Z" fill="#3A2C6D"/>
<path d="M47.0444 251.388L47.4125 251.6C47.4315 251.609 47.4521 251.613 47.473 251.613C47.4939 251.613 47.5145 251.609 47.5335 251.6L47.8814 251.399C47.9167 251.399 47.9218 251.348 47.8814 251.328L47.5133 251.116C47.4952 251.108 47.4754 251.103 47.4553 251.103C47.4353 251.103 47.4155 251.108 47.3974 251.116L47.0444 251.318C47.0192 251.328 47.0141 251.368 47.0444 251.388Z" fill="#3A2C6D"/>
<path d="M46.525 251.086L46.8931 251.298C46.9112 251.306 46.931 251.311 46.9511 251.311C46.9711 251.311 46.9909 251.306 47.0091 251.298L47.3621 251.096C47.3974 251.096 47.3974 251.046 47.3621 251.025L46.9939 250.814C46.9758 250.805 46.956 250.801 46.936 250.801C46.9159 250.801 46.8961 250.805 46.878 250.814L46.525 251.015C46.4947 251.036 46.4947 251.066 46.525 251.086Z" fill="#3A2C6D"/>
<path d="M46.0056 250.783L46.3737 251C46.3919 251.009 46.4117 251.013 46.4317 251.013C46.4518 251.013 46.4716 251.009 46.4897 251L46.8427 250.793C46.878 250.793 46.883 250.743 46.8427 250.728L46.4746 250.516C46.4559 250.506 46.4351 250.501 46.4141 250.501C46.393 250.501 46.3722 250.506 46.3535 250.516L46.0056 250.718C45.9804 250.738 45.9753 250.768 46.0056 250.783Z" fill="#3A2C6D"/>
<path d="M45.4812 250.486L45.8493 250.698C45.8683 250.706 45.8889 250.711 45.9098 250.711C45.9307 250.711 45.9513 250.706 45.9703 250.698L46.3182 250.496C46.3535 250.496 46.3586 250.446 46.3182 250.425L45.9501 250.214C45.932 250.205 45.9122 250.201 45.8921 250.201C45.8721 250.201 45.8523 250.205 45.8342 250.214L45.4812 250.415C45.456 250.435 45.4509 250.466 45.4812 250.486Z" fill="#3A2C6D"/>
<path d="M44.9618 250.183L45.3299 250.395C45.348 250.404 45.3678 250.408 45.3879 250.408C45.4079 250.408 45.4277 250.404 45.4459 250.395L45.7989 250.193C45.8341 250.193 45.8341 250.143 45.7989 250.123L45.4307 249.911C45.4126 249.902 45.3928 249.898 45.3728 249.898C45.3527 249.898 45.3329 249.902 45.3148 249.911L44.9618 250.113C44.9315 250.133 44.9315 250.163 44.9618 250.183Z" fill="#3A2C6D"/>
<path d="M44.4373 249.881L44.8055 250.093C44.8232 250.102 44.8432 250.107 44.8634 250.107C44.8837 250.107 44.9037 250.102 44.9214 250.093L45.2744 249.891C45.3097 249.891 45.3148 249.84 45.2744 249.825L44.9063 249.608C44.8873 249.6 44.8667 249.595 44.8458 249.595C44.8249 249.595 44.8043 249.6 44.7853 249.608L44.4373 249.815C44.4121 249.815 44.4071 249.866 44.4373 249.881Z" fill="#3A2C6D"/>
<path d="M43.9129 249.578L44.2861 249.79C44.3039 249.8 44.3238 249.805 44.3441 249.805C44.3643 249.805 44.3843 249.8 44.402 249.79L44.755 249.588C44.7853 249.588 44.7903 249.538 44.755 249.523L44.3869 249.311C44.3691 249.301 44.3492 249.296 44.3289 249.296C44.3087 249.296 44.2887 249.301 44.2709 249.311L43.918 249.513C43.8877 249.533 43.8877 249.563 43.9129 249.578Z" fill="#3A2C6D"/>
<path d="M43.3935 249.276L43.7616 249.492C43.7798 249.501 43.7996 249.505 43.8196 249.505C43.8397 249.505 43.8595 249.501 43.8776 249.492L44.2306 249.286C44.2659 249.286 44.2709 249.235 44.2306 249.22L43.8625 249.008C43.8438 248.999 43.823 248.994 43.802 248.994C43.7809 248.994 43.7602 248.999 43.7415 249.008L43.3935 249.21C43.3683 249.23 43.3633 249.26 43.3935 249.276Z" fill="#3A2C6D"/>
<path d="M42.8691 248.978L43.2372 249.19C43.2562 249.199 43.2768 249.203 43.2977 249.203C43.3186 249.203 43.3392 249.199 43.3582 249.19L43.7062 248.988C43.7415 248.988 43.7465 248.938 43.7062 248.918L43.3381 248.706C43.3199 248.697 43.3001 248.693 43.2801 248.693C43.26 248.693 43.2402 248.697 43.2221 248.706L42.8691 248.908C42.8439 248.928 42.8388 248.958 42.8691 248.978Z" fill="#3A2C6D"/>
<path d="M42.3497 248.676L42.7178 248.887C42.736 248.896 42.7558 248.9 42.7758 248.9C42.7959 248.9 42.8157 248.896 42.8338 248.887L43.1868 248.686C43.2221 248.686 43.2221 248.635 43.1868 248.615L42.8187 248.403C42.8005 248.395 42.7807 248.39 42.7607 248.39C42.7406 248.39 42.7208 248.395 42.7027 248.403L42.3497 248.605C42.3194 248.625 42.3194 248.655 42.3497 248.676Z" fill="#3A2C6D"/>
<path d="M48.6126 252.291L49.2329 252.649C49.251 252.658 49.2708 252.662 49.2909 252.662C49.3109 252.662 49.3307 252.658 49.3488 252.649L49.7018 252.447C49.7371 252.447 49.7422 252.397 49.7018 252.377L49.0816 252.019C49.0626 252.01 49.0419 252.006 49.0211 252.006C49.0002 252.006 48.9796 252.01 48.9606 252.019L48.6126 252.226C48.5874 252.246 48.5824 252.276 48.6126 252.291Z" fill="#3A2C6D"/>
<path d="M42.3043 248.101L42.6724 248.312C42.7027 248.312 42.7027 248.358 42.6724 248.378L42.2993 248.59C42.2834 248.6 42.265 248.605 42.2463 248.605C42.2276 248.605 42.2093 248.6 42.1934 248.59H42.1631C42.1474 248.582 42.1302 248.578 42.1127 248.578C42.0952 248.578 42.078 248.582 42.0623 248.59L41.6689 248.817C41.6514 248.824 41.6325 248.828 41.6135 248.828C41.5944 248.828 41.5755 248.824 41.558 248.817L41.3261 248.681C41.2958 248.681 41.2958 248.635 41.3261 248.615L41.6942 248.403L41.7698 248.363L41.8253 248.328L41.8807 248.297L42.1934 248.116C42.2089 248.104 42.2273 248.096 42.2468 248.093C42.2663 248.091 42.2861 248.093 42.3043 248.101V248.101Z" fill="#3A2C6D"/>
<path d="M47.3469 253.31L47.715 253.522C47.7328 253.531 47.7528 253.536 47.773 253.536C47.7933 253.536 47.8132 253.531 47.831 253.522L48.184 253.32C48.2193 253.32 48.2193 253.269 48.184 253.254L47.8159 253.042C47.7981 253.033 47.7782 253.028 47.7579 253.028C47.7376 253.028 47.7177 253.033 47.6999 253.042L47.3469 253.244C47.3217 253.264 47.3167 253.295 47.3469 253.31Z" fill="#3A2C6D"/>
<path d="M46.8275 253.012L47.1957 253.224C47.2138 253.233 47.2336 253.237 47.2536 253.237C47.2737 253.237 47.2935 253.233 47.3116 253.224L47.6646 253.022C47.6999 253.022 47.6999 252.972 47.6646 252.952L47.2965 252.74C47.2784 252.731 47.2586 252.727 47.2385 252.727C47.2185 252.727 47.1987 252.731 47.1805 252.74L46.8275 252.942C46.7973 252.962 46.7973 252.992 46.8275 253.012Z" fill="#3A2C6D"/>
<path d="M46.3031 252.71L46.6763 252.921C46.6941 252.931 46.714 252.936 46.7343 252.936C46.7545 252.936 46.7745 252.931 46.7922 252.921L47.1452 252.72C47.1755 252.72 47.1805 252.669 47.1452 252.654L46.7771 252.442C46.7593 252.433 46.7394 252.428 46.7191 252.428C46.6989 252.428 46.6789 252.433 46.6611 252.442L46.3082 252.649C46.2779 252.664 46.2779 252.695 46.3031 252.71Z" fill="#3A2C6D"/>
<path d="M41.8757 250.153L42.2438 250.365C42.2625 250.375 42.2833 250.38 42.3043 250.38C42.3254 250.38 42.3461 250.375 42.3648 250.365L42.7128 250.163C42.7481 250.163 42.7531 250.113 42.7128 250.098L42.3447 249.881C42.3265 249.872 42.3067 249.868 42.2867 249.868C42.2666 249.868 42.2468 249.872 42.2287 249.881L41.8757 250.087C41.8505 250.108 41.8454 250.138 41.8757 250.153Z" fill="#3A2C6D"/>
<path d="M41.3563 249.856L41.7244 250.067C41.7426 250.076 41.7624 250.08 41.7824 250.08C41.8025 250.08 41.8223 250.076 41.8404 250.067L42.1934 249.861C42.2287 249.861 42.2337 249.815 42.1934 249.795L41.8253 249.583C41.8066 249.574 41.7858 249.568 41.7648 249.568C41.7437 249.568 41.7229 249.574 41.7042 249.583L41.3563 249.785C41.3311 249.815 41.3261 249.815 41.3563 249.856Z" fill="#3A2C6D"/>
<path d="M40.8369 249.553L41.205 249.765C41.2228 249.774 41.2428 249.78 41.263 249.78C41.2833 249.78 41.3032 249.774 41.321 249.765L41.674 249.563C41.7093 249.563 41.7143 249.513 41.674 249.498L41.3059 249.281C41.2869 249.272 41.2662 249.268 41.2454 249.268C41.2245 249.268 41.2039 249.272 41.1849 249.281L40.8369 249.487C40.8117 249.508 40.8067 249.538 40.8369 249.553Z" fill="#3A2C6D"/>
<path d="M40.3175 249.25L40.6856 249.467C40.7038 249.476 40.7236 249.48 40.7436 249.48C40.7637 249.48 40.7835 249.476 40.8016 249.467L41.1546 249.26C41.1899 249.26 41.1899 249.21 41.1546 249.195L40.7814 248.983C40.7637 248.973 40.7437 248.968 40.7235 248.968C40.7032 248.968 40.6833 248.973 40.6655 248.983L40.3125 249.185C40.2923 249.205 40.2873 249.235 40.3175 249.25Z" fill="#3A2C6D"/>
<path d="M45.6577 252.336L46.1619 252.629C46.1809 252.638 46.2016 252.642 46.2224 252.642C46.2433 252.642 46.2639 252.638 46.2829 252.629L46.6309 252.427C46.6662 252.427 46.6712 252.377 46.6309 252.357L46.1266 252.069C46.1088 252.06 46.0889 252.054 46.0686 252.054C46.0484 252.054 46.0284 252.06 46.0106 252.069L45.6577 252.271C45.6274 252.286 45.6224 252.336 45.6577 252.336Z" fill="#3A2C6D"/>
<path d="M42.3951 250.456L42.8993 250.743C42.9171 250.753 42.9371 250.758 42.9573 250.758C42.9776 250.758 42.9975 250.753 43.0153 250.743L43.3683 250.541C43.4036 250.541 43.4086 250.491 43.3683 250.471L42.864 250.183C42.8459 250.175 42.8261 250.17 42.8061 250.17C42.786 250.17 42.7662 250.175 42.7481 250.183L42.3951 250.385C42.3699 250.405 42.3648 250.435 42.3951 250.456Z" fill="#3A2C6D"/>
<path d="M43.0506 250.824L45.5013 252.241C45.5195 252.249 45.5393 252.254 45.5593 252.254C45.5794 252.254 45.5992 252.249 45.6173 252.241L45.9703 252.039C46.0056 252.039 46.0056 251.989 45.9703 251.968L43.5246 250.556C43.5059 250.547 43.4852 250.542 43.4641 250.542C43.4431 250.542 43.4223 250.547 43.4036 250.556L43.0557 250.758C43.0254 250.783 43.0204 250.824 43.0506 250.824Z" fill="#3A2C6D"/>
<path d="M47.4427 252.2L47.8108 252.412C47.8286 252.422 47.8486 252.427 47.8688 252.427C47.8891 252.427 47.909 252.422 47.9268 252.412L48.2798 252.21C48.3151 252.21 48.3201 252.16 48.2798 252.14L47.9117 251.928C47.8927 251.919 47.8721 251.915 47.8512 251.915C47.8303 251.915 47.8097 251.919 47.7907 251.928L47.4427 252.13C47.4175 252.15 47.4125 252.18 47.4427 252.2Z" fill="#3A2C6D"/>
<path d="M46.9234 251.898L47.2915 252.11C47.3093 252.119 47.3292 252.124 47.3495 252.124C47.3697 252.124 47.3897 252.119 47.4074 252.11L47.7604 251.908C47.7957 251.908 47.7957 251.857 47.7604 251.842L47.3923 251.631C47.3745 251.621 47.3546 251.616 47.3343 251.616C47.3141 251.616 47.2941 251.621 47.2763 251.631L46.9234 251.832C46.8981 251.832 46.8931 251.883 46.9234 251.898Z" fill="#3A2C6D"/>
<path d="M46.3989 251.6L46.7721 251.812C46.7902 251.821 46.81 251.825 46.8301 251.825C46.8501 251.825 46.8699 251.821 46.8881 251.812L47.241 251.61C47.2713 251.61 47.2763 251.56 47.241 251.54L46.8729 251.328C46.8548 251.319 46.835 251.315 46.8149 251.315C46.7949 251.315 46.7751 251.319 46.7569 251.328L46.404 251.53C46.3737 251.55 46.3737 251.58 46.3989 251.6Z" fill="#3A2C6D"/>
<path d="M45.8795 251.298L46.2476 251.51C46.2654 251.519 46.2854 251.524 46.3056 251.524C46.3259 251.524 46.3458 251.519 46.3636 251.51L46.7166 251.308C46.7519 251.308 46.7569 251.257 46.7166 251.237L46.3485 251.025C46.3304 251.017 46.3106 251.012 46.2905 251.012C46.2705 251.012 46.2507 251.017 46.2325 251.025L45.8795 251.232C45.8543 251.252 45.8493 251.283 45.8795 251.298Z" fill="#3A2C6D"/>
<path d="M45.3601 250.995L45.7282 251.207C45.746 251.217 45.766 251.222 45.7862 251.222C45.8065 251.222 45.8264 251.217 45.8442 251.207L46.1972 251C46.2325 251 46.2376 250.95 46.1972 250.935L45.8291 250.723C45.8104 250.713 45.7897 250.708 45.7686 250.708C45.7475 250.708 45.7268 250.713 45.7081 250.723L45.3601 250.925C45.3349 250.95 45.3299 250.98 45.3601 250.995Z" fill="#3A2C6D"/>
<path d="M44.8408 250.698L45.2089 250.909C45.227 250.918 45.2468 250.922 45.2669 250.922C45.2869 250.922 45.3067 250.918 45.3249 250.909L45.6778 250.708C45.7081 250.708 45.7131 250.657 45.6778 250.637L45.3097 250.425C45.2916 250.417 45.2718 250.412 45.2517 250.412C45.2317 250.412 45.2119 250.417 45.1937 250.425L44.8408 250.627C44.8105 250.647 44.8105 250.677 44.8408 250.698Z" fill="#3A2C6D"/>
<path d="M44.3163 250.395L44.6844 250.607C44.7031 250.617 44.7239 250.622 44.7449 250.622C44.766 250.622 44.7868 250.617 44.8054 250.607L45.1534 250.405C45.1887 250.405 45.1937 250.355 45.1534 250.34L44.7853 250.123C44.7671 250.114 44.7473 250.11 44.7273 250.11C44.7072 250.11 44.6874 250.114 44.6693 250.123L44.3163 250.33C44.2911 250.35 44.2861 250.38 44.3163 250.395Z" fill="#3A2C6D"/>
<path d="M43.7969 250.093L44.1449 250.319C44.163 250.328 44.1828 250.332 44.2029 250.332C44.2229 250.332 44.2427 250.328 44.2609 250.319L44.6138 250.113C44.6491 250.113 44.6542 250.062 44.6138 250.047L44.2457 249.835C44.227 249.826 44.2063 249.821 44.1852 249.821C44.1641 249.821 44.1434 249.826 44.1247 249.835L43.7768 250.037C43.7717 250.047 43.7667 250.077 43.7969 250.093Z" fill="#3A2C6D"/>
<path d="M43.2775 249.815L43.6457 250.027C43.6638 250.036 43.6836 250.04 43.7036 250.04C43.7237 250.04 43.7435 250.036 43.7616 250.027L44.1146 249.825C44.1499 249.825 44.1499 249.775 44.1146 249.755L43.7465 249.543C43.7284 249.534 43.7086 249.53 43.6885 249.53C43.6685 249.53 43.6487 249.534 43.6305 249.543L43.2775 249.745C43.2473 249.745 43.2473 249.775 43.2775 249.815Z" fill="#3A2C6D"/>
<path d="M42.7531 249.492L43.1212 249.704C43.1399 249.714 43.1607 249.719 43.1817 249.719C43.2028 249.719 43.2236 249.714 43.2422 249.704L43.5902 249.503C43.6255 249.503 43.6305 249.452 43.5902 249.437L43.2221 249.22C43.2039 249.212 43.1841 249.207 43.1641 249.207C43.144 249.207 43.1242 249.212 43.1061 249.22L42.7531 249.427C42.7279 249.447 42.7229 249.477 42.7531 249.492Z" fill="#3A2C6D"/>
<path d="M42.2337 249.19L42.6018 249.407C42.62 249.415 42.6398 249.42 42.6598 249.42C42.6799 249.42 42.6997 249.415 42.7178 249.407L43.0708 249.2C43.1061 249.2 43.1111 249.15 43.0708 249.134L42.7027 248.923C42.684 248.913 42.6632 248.908 42.6422 248.908C42.6211 248.908 42.6003 248.913 42.5817 248.923L42.2337 249.124C42.2085 249.145 42.2035 249.175 42.2337 249.19Z" fill="#3A2C6D"/>
<path d="M41.7143 248.892L42.0825 249.104C42.1006 249.113 42.1204 249.117 42.1404 249.117C42.1605 249.117 42.1803 249.113 42.1984 249.104L42.5514 248.902C42.5867 248.902 42.5867 248.852 42.5514 248.832L42.1833 248.62C42.1652 248.612 42.1454 248.607 42.1253 248.607C42.1053 248.607 42.0855 248.612 42.0673 248.62L41.7143 248.822C41.6841 248.842 41.6841 248.872 41.7143 248.892Z" fill="#3A2C6D"/>
<path d="M47.9621 252.503L48.7286 252.942C48.7467 252.95 48.7665 252.955 48.7866 252.955C48.8066 252.955 48.8264 252.95 48.8446 252.942L49.1925 252.74C49.2278 252.74 49.2329 252.689 49.1925 252.669L48.4311 252.231C48.4133 252.221 48.3934 252.216 48.3731 252.216C48.3528 252.216 48.3329 252.221 48.3151 252.231L47.9621 252.432C47.9369 252.452 47.9319 252.483 47.9621 252.503Z" fill="#3A2C6D"/>
<path d="M47.1957 252.639L47.5638 252.856C47.5819 252.864 47.6017 252.869 47.6218 252.869C47.6418 252.869 47.6616 252.864 47.6797 252.856L48.0327 252.649C48.068 252.649 48.0731 252.599 48.0327 252.584L47.6646 252.372C47.6468 252.362 47.6269 252.357 47.6066 252.357C47.5864 252.357 47.5664 252.362 47.5486 252.372L47.1957 252.573C47.1704 252.594 47.1704 252.624 47.1957 252.639Z" fill="#3A2C6D"/>
<path d="M46.6662 252.336L47.0343 252.548C47.0524 252.557 47.0722 252.561 47.0923 252.561C47.1123 252.561 47.1321 252.557 47.1503 252.548L47.5033 252.347C47.5386 252.347 47.5436 252.296 47.5033 252.276L47.1301 252.064C47.112 252.056 47.0922 252.051 47.0721 252.051C47.0521 252.051 47.0323 252.056 47.0141 252.064L46.6662 252.266C46.6662 252.291 46.6662 252.336 46.6662 252.336Z" fill="#3A2C6D"/>
<path d="M46.1619 252.039L46.53 252.251C46.5478 252.26 46.5677 252.266 46.588 252.266C46.6083 252.266 46.6282 252.26 46.646 252.251L46.999 252.049C47.0292 252.049 47.0343 251.999 46.999 251.984L46.6309 251.767C46.6127 251.758 46.5929 251.754 46.5729 251.754C46.5528 251.754 46.533 251.758 46.5149 251.767L46.1619 251.973C46.1266 251.994 46.1266 252.024 46.1619 252.039Z" fill="#3A2C6D"/>
<path d="M45.6577 251.736L46.0258 251.953C46.0448 251.962 46.0654 251.966 46.0863 251.966C46.1071 251.966 46.1278 251.962 46.1468 251.953L46.4947 251.747C46.53 251.747 46.5351 251.696 46.4947 251.681L46.1266 251.469C46.1088 251.459 46.0889 251.454 46.0686 251.454C46.0484 251.454 46.0284 251.459 46.0106 251.469L45.6577 251.671C45.6072 251.691 45.6022 251.721 45.6577 251.736Z" fill="#3A2C6D"/>
<path d="M45.1131 251.439L45.4812 251.651C45.4993 251.659 45.5191 251.664 45.5392 251.664C45.5592 251.664 45.579 251.659 45.5971 251.651L45.9501 251.449C45.9854 251.449 45.9905 251.399 45.9501 251.378L45.582 251.167C45.563 251.158 45.5424 251.154 45.5215 251.154C45.5006 251.154 45.48 251.158 45.461 251.167L45.1131 251.368C45.0878 251.388 45.0828 251.419 45.1131 251.439Z" fill="#3A2C6D"/>
<path d="M44.5937 251.136L44.9618 251.348C44.9796 251.358 44.9995 251.363 45.0198 251.363C45.04 251.363 45.06 251.358 45.0778 251.348L45.4307 251.146C45.466 251.146 45.466 251.096 45.4307 251.081L45.0626 250.869C45.0448 250.859 45.0249 250.854 45.0046 250.854C44.9844 250.854 44.9644 250.859 44.9466 250.869L44.5937 251.071C44.5634 251.091 44.5634 251.121 44.5937 251.136Z" fill="#3A2C6D"/>
<path d="M44.0692 250.824L44.4373 251.036C44.4563 251.044 44.477 251.049 44.4979 251.049C44.5187 251.049 44.5394 251.044 44.5584 251.036L44.9063 250.834C44.9416 250.834 44.9466 250.783 44.9063 250.763L44.5382 250.551C44.5204 250.542 44.5005 250.537 44.4802 250.537C44.4599 250.537 44.44 250.542 44.4222 250.551L44.0692 250.753C44.044 250.788 44.039 250.824 44.0692 250.824Z" fill="#3A2C6D"/>
<path d="M43.5499 250.536L43.918 250.748C43.9357 250.758 43.9557 250.763 43.976 250.763C43.9962 250.763 44.0162 250.758 44.0339 250.748L44.3869 250.546C44.4222 250.546 44.4273 250.496 44.3869 250.476L44.0188 250.264C43.9998 250.255 43.9792 250.251 43.9583 250.251C43.9374 250.251 43.9168 250.255 43.8978 250.264L43.5499 250.471C43.5246 250.486 43.5196 250.516 43.5499 250.536Z" fill="#3A2C6D"/>
<path d="M43.0305 250.234L43.3986 250.446C43.4166 250.454 43.4365 250.459 43.4566 250.459C43.4767 250.459 43.4965 250.454 43.5146 250.446L43.8675 250.239C43.9028 250.239 43.9028 250.188 43.8675 250.173L43.4944 249.961C43.4766 249.952 43.4567 249.947 43.4364 249.947C43.4161 249.947 43.3962 249.952 43.3784 249.961L43.0254 250.163C43.0053 250.188 43.0002 250.219 43.0305 250.234Z" fill="#3A2C6D"/>
<path d="M42.5111 249.936L42.8792 250.148C42.8973 250.157 42.9171 250.161 42.9372 250.161C42.9572 250.161 42.977 250.157 42.9952 250.148L43.3481 249.946C43.3784 249.946 43.3834 249.896 43.3481 249.876L42.98 249.664C42.9619 249.655 42.9421 249.651 42.922 249.651C42.902 249.651 42.8822 249.655 42.864 249.664L42.5111 249.866C42.4808 249.886 42.4808 249.916 42.5111 249.936Z" fill="#3A2C6D"/>
<path d="M41.9866 249.634L42.3547 249.845C42.3734 249.855 42.3942 249.86 42.4153 249.86C42.4363 249.86 42.4571 249.855 42.4758 249.845L42.8237 249.644C42.859 249.644 42.864 249.593 42.8237 249.578L42.4556 249.361C42.4375 249.353 42.4177 249.348 42.3976 249.348C42.3776 249.348 42.3578 249.353 42.3396 249.361L41.9866 249.568C41.9614 249.588 41.9564 249.619 41.9866 249.634Z" fill="#3A2C6D"/>
<path d="M40.8218 248.963L41.8303 249.548C41.8485 249.556 41.8683 249.561 41.8883 249.561C41.9084 249.561 41.9282 249.556 41.9463 249.548L42.2993 249.341C42.3346 249.341 42.3396 249.291 42.2993 249.276L41.2908 248.691C41.2721 248.681 41.2513 248.676 41.2302 248.676C41.2092 248.676 41.1884 248.681 41.1697 248.691L40.8218 248.892C40.7966 248.913 40.7915 248.943 40.8218 248.963Z" fill="#3A2C6D"/>
<path d="M47.715 252.942L48.2193 253.234C48.2374 253.243 48.2572 253.247 48.2773 253.247C48.2973 253.247 48.3171 253.243 48.3353 253.234L48.6883 253.027C48.7236 253.027 48.7286 252.977 48.6883 252.962L48.184 252.669C48.1659 252.661 48.1461 252.656 48.126 252.656C48.106 252.656 48.0862 252.661 48.068 252.669L47.715 252.876C47.6747 252.896 47.6747 252.926 47.715 252.942Z" fill="#3A2C6D"/>
<path d="M51.5376 251.908L43.177 247.077V240.522L43.2425 240.37L43.3081 240.34C43.3959 240.288 43.496 240.261 43.598 240.261C43.7 240.261 43.8002 240.288 43.888 240.34L51.5376 244.752C51.6249 244.805 51.6973 244.878 51.7476 244.967C51.798 245.055 51.8247 245.155 51.8251 245.257V251.429C51.7696 251.726 51.7091 251.802 51.5376 251.908Z" fill="#E5E5E5"/>
<path d="M50.7712 245.534L43.177 240.738V240.522L43.2425 240.37L43.3081 240.34C43.3959 240.288 43.496 240.261 43.598 240.261C43.7 240.261 43.8002 240.288 43.888 240.34L51.5376 244.752C51.6317 244.806 51.7074 244.887 51.7545 244.984L50.7712 245.534Z" fill="#E5E5E5"/>
<path d="M43.3683 240.355L51.3961 244.989C51.4384 245.014 51.4735 245.05 51.4982 245.092C51.523 245.134 51.5364 245.182 51.5373 245.231V251.908L43.1767 247.077V240.466C43.1761 240.444 43.1816 240.421 43.1927 240.401C43.2038 240.382 43.2199 240.365 43.2396 240.354C43.2592 240.342 43.2815 240.337 43.3041 240.337C43.3268 240.337 43.349 240.343 43.3683 240.355V240.355Z" fill="#DCEEFF"/>
<path d="M43.3683 240.355L51.3961 244.989C51.4384 245.014 51.4735 245.05 51.4982 245.092C51.523 245.134 51.5364 245.182 51.5373 245.231V251.908L43.1767 247.077V240.466C43.1761 240.444 43.1816 240.421 43.1927 240.401C43.2038 240.382 43.2199 240.365 43.2396 240.354C43.2592 240.342 43.2815 240.337 43.3041 240.337C43.3268 240.337 43.349 240.343 43.3683 240.355V240.355Z" fill="#F4F4F4"/>
<path d="M51.5373 251.908V251.666L43.1767 246.84V247.077L51.5373 251.908Z" fill="#DBDBDB"/>
<path d="M43.3935 246.729V240.703L43.4944 240.759V246.679L43.3935 246.729Z" fill="#1E3779"/>
<path d="M43.4944 240.759V246.679L51.2701 251.151V245.247L43.4944 240.759Z" fill="#3A2C6D"/>
<path d="M43.3935 246.729L51.2701 251.273V251.151L43.4944 246.679L43.3935 246.729Z" fill="#031F60"/>
<path d="M34.3925 239.311C34.1908 239.816 34.7001 240.411 36.0464 240.824C37.3928 241.238 37.5138 240.703 37.5138 240.703C38.4119 241.106 39.2872 241.557 40.136 242.055C40.9428 242.619 41.3008 244.258 41.4118 247.022C41.5378 250.219 41.5479 254.959 41.442 255.781C41.442 255.781 39.9293 257.293 37.9979 257.127C36.0666 256.961 32.804 255.256 32.0174 253.935C32.0174 251.131 32.3653 250.672 31.9115 249.059C30.8727 245.363 30.3231 243.85 30.8324 241.389C31.2459 239.372 31.8409 239.115 32.6326 239.135C33.2219 239.163 33.8093 239.222 34.3925 239.311V239.311Z" fill="#F4F4F4"/>
<path d="M44.5937 250.456C43.0052 250.859 42.6321 249.856 42.4253 249.029C41.9211 247.012 41.6488 245.206 41.2706 244.067C40.8268 242.725 40.3629 242.508 39.7074 242.246C38.9459 241.939 38.2854 242.589 38.5375 244.299C38.852 246.284 39.3396 248.238 39.9948 250.138C40.2267 250.993 40.6748 251.775 41.2958 252.407C42.1178 253.073 43.3532 253.042 45.219 252.579C46.3132 252.206 47.3756 251.746 48.3958 251.202C48.7992 251.015 49.1118 250.889 49.9086 250.526C50.6979 250.181 51.3905 249.648 51.9256 248.973C52.329 248.383 52.3845 248.106 52.3038 247.965C52.2231 247.823 52.0113 247.833 51.7996 248.081C51.4866 248.498 51.1004 248.855 50.6599 249.134C50.6599 249.134 51.1642 248.63 51.4314 248.282C51.6763 247.975 51.8782 247.636 52.0315 247.274C52.1778 246.931 51.8802 246.467 51.6533 246.709C51.4264 246.951 51.3256 247.213 50.9121 247.717C50.6961 247.98 50.4489 248.216 50.1758 248.418C50.4317 248.074 50.6594 247.71 50.8566 247.329C51.0335 247.023 51.1192 246.674 51.1037 246.321C51.1037 246.144 50.8364 245.932 50.5994 246.27C50.3538 246.752 50.0489 247.201 49.6917 247.607C49.3287 247.985 49.0211 248.202 49.011 248.111C49.0009 248.02 49.2329 247.798 49.3589 247.364C49.485 246.931 49.3589 246.462 49.1169 246.411C48.8748 246.361 48.9202 246.371 48.7286 246.785C48.4594 247.205 48.2185 247.643 48.0075 248.096C47.8831 248.518 47.6582 248.904 47.352 249.22C46.9687 249.619 46.1065 250.077 44.5937 250.456Z" fill="#FFCEA9"/>
<path d="M39.1023 241.974C40.1612 241.818 40.9126 242.297 41.3815 243.9C41.8505 245.504 42.1732 246.825 42.1732 246.825C41.7546 247.431 41.1192 247.854 40.3982 248.005C39.1325 248.312 38.6737 247.707 38.6737 247.707C38.6737 247.707 38.3207 246.023 38.1038 244.878C37.887 243.734 37.8114 242.166 39.1023 241.974Z" fill="#EDEDED"/>
<path d="M39.6469 233.749C39.6469 233.749 41.321 231.203 37.6903 230.684C35.0732 230.31 33.389 231.99 33.1974 233.815C33.0108 235.56 34.0849 237.37 34.8564 238.091C35.6187 238.285 36.426 238.188 37.1205 237.819C37.1638 237.343 37.1806 236.865 37.1709 236.387C37.1709 236.387 35.8952 233.704 39.6469 233.749Z" fill="#3A2C6D"/>
<path d="M46.9133 265.977V258.327L40.8369 261.872L43.1767 266.708L46.9133 265.977Z" fill="#C4C7D6"/>
<path d="M42.9296 258.766L45.2593 257.414L46.9082 258.367L44.4928 259.739L42.9296 258.766Z" fill="#D6D8E5"/>
<path opacity="0.4" d="M138.996 224.098L110.294 207.528C108.221 206.333 108.484 204.245 110.874 202.863L129.471 192.128L165.672 213.044L147.08 223.78C144.684 225.162 141.069 225.308 138.996 224.098Z" fill="#D6D8E5"/>
<path d="M141.094 222.883L112.387 206.308C110.319 205.112 110.581 203.03 112.966 201.648L131.564 190.912L167.764 211.809L149.167 222.55C146.777 223.926 143.162 224.098 141.094 222.883Z" fill="#B1B4C4"/>
<path d="M167.764 211.809V210.715L166.095 211.678L167.764 211.809Z" fill="#B1B4C4"/>
<path d="M110.99 204.336V203.221L112.709 203.932L110.99 204.336Z" fill="#B1B4C4"/>
<path d="M141.094 221.788L112.387 205.213C110.319 204.018 110.581 201.931 112.966 200.554L131.564 189.808L167.764 210.71L149.167 221.445C146.777 222.832 143.162 222.978 141.094 221.788Z" fill="#D6D8E5"/>
<path d="M131.664 189.864L127.182 174.998L163.776 195.99L167.764 210.715L131.664 189.864Z" fill="#9EA1AF"/>
<path d="M166.705 211.325L167.764 210.715L166.176 209.474L166.705 211.325Z" fill="#9EA1AF"/>
<path d="M130.51 190.423L126.027 175.558L162.621 196.55L166.706 211.325L130.51 190.423Z" fill="#B1B4C4"/>
<path d="M223.405 236.377L81.7527 154.596C79.7659 153.446 78.1573 150.37 78.1573 147.723V38.1516C78.1573 35.5043 79.7659 34.284 81.7527 35.4337L223.405 117.195C225.391 118.339 227 121.415 227 124.068V233.679C227 236.306 225.391 237.526 223.405 236.377Z" fill="#C4C7D6"/>
<path d="M224.131 237.506L225.704 236.604L225.023 231.949L224.131 237.506Z" fill="#C4C7D6"/>
<path d="M77.9001 36.1043L79.4431 35.2168L81.6619 36.4825C81.6619 36.4825 79.2969 36.8406 79.2414 36.8254C79.186 36.8103 77.9001 36.1043 77.9001 36.1043Z" fill="#B1B4C4"/>
<path d="M222.104 237.128L80.4517 155.347C78.4649 154.197 76.8512 151.121 76.8512 148.474V38.903C76.8512 36.2506 78.4649 35.0353 80.4517 36.18L222.099 117.961C224.085 119.111 225.699 122.187 225.699 124.839V234.405C225.704 237.057 224.09 238.273 222.104 237.128Z" fill="#E4E7F2"/>
<path d="M221.857 237.269L80.2046 155.488C78.2178 154.338 76.6092 151.262 76.6092 148.615V39.0341C76.6092 36.3867 78.2178 35.1664 80.2046 36.3161L221.857 118.107C223.843 119.252 225.452 122.328 225.452 124.98V234.551C225.452 237.209 223.843 238.419 221.857 237.269Z" fill="#201D38"/>
<path opacity="0.3" d="M223.505 230.608L78.4044 146.835L78.48 39.4829C78.48 38.3836 79.2515 37.9398 80.2046 38.4744L221.857 120.271C222.359 120.597 222.776 121.038 223.076 121.557C223.376 122.075 223.549 122.658 223.581 123.256L223.505 230.608Z" fill="#3A3756"/>
<path d="M166.489 106.645L156.872 101.093V97.6242L166.489 103.176V106.645Z" fill="#A298E2"/>
<path d="M188.717 119.489L168.289 107.684V104.215L188.717 116.02V119.489Z" fill="#F4CE2C"/>
<path d="M166.489 117.744L156.872 112.197V108.728L166.489 114.275V117.744Z" fill="#A298E2"/>
<path d="M175.056 122.777L168.289 118.788V115.319L175.056 119.307V122.777Z" fill="#4D3BFF"/>
<path d="M166.489 123.296L156.872 117.744V114.275L166.489 119.827V123.296Z" fill="#A298E2"/>
<path d="M179.705 130.926L168.289 124.335V120.866L179.705 127.456V130.926Z" fill="#4D3BFF"/>
<path d="M166.489 128.843L156.872 123.296V119.827L166.489 125.379V128.843Z" fill="#A298E2"/>
<path d="M198.398 147.228L168.289 129.887V126.417L198.398 143.764V147.228Z" fill="#FF8657"/>
<path d="M166.489 112.197L156.872 106.645V103.176L166.489 108.728V112.197Z" fill="#A298E2"/>
<path d="M205.796 134.914L168.289 113.236V109.767L205.796 131.445V134.914Z" fill="#A298E2"/>
<path d="M166.489 134.395L156.872 128.843V125.374L166.489 130.926V134.395Z" fill="#A298E2"/>
<path d="M200.733 154.515L168.289 135.439V131.969L200.733 151.046V154.515Z" fill="#C33AFC"/>
<path d="M166.489 145.499L156.872 139.947V136.477L166.489 142.029V145.499Z" fill="#A298E2"/>
<path d="M206.144 168.392L168.289 146.537V143.068L206.144 164.923V168.392Z" fill="#A298E2"/>
<path d="M166.489 151.046L156.872 145.499V142.029L166.489 147.576V151.046Z" fill="#A298E2"/>
<path d="M179.705 158.68L168.289 152.084V148.62L179.705 155.211V158.68Z" fill="#C33AFC"/>
<path d="M166.489 156.597L156.872 151.046V147.576L166.489 153.128V156.597Z" fill="#A298E2"/>
<path d="M191.616 171.166L168.289 157.636V154.167L191.616 167.696V171.166Z" fill="#4D3BFF"/>
<path d="M166.489 139.947L156.872 134.395V130.926L166.489 136.477V139.947Z" fill="#A298E2"/>
<path d="M172.494 143.416L168.289 140.986V137.516L172.494 139.947V143.416Z" fill="#4D3BFF"/>
<path d="M166.489 162.149L156.872 156.597V153.128L166.489 158.68V162.149Z" fill="#A298E2"/>
<path d="M183.346 171.861L168.289 163.188V159.719L183.346 168.392V171.861Z" fill="#C33AFC"/>
<path d="M166.489 173.248L156.872 167.696V164.227L166.489 169.779V173.248Z" fill="#A298E2"/>
<path d="M190.26 186.813L168.289 174.287V170.818L190.26 183.344V186.813Z" fill="#FF8657"/>
<path d="M166.489 178.8L156.872 173.248V169.779L166.489 175.331V178.8Z" fill="#A298E2"/>
<path d="M171.032 181.574L168.289 179.839V176.37L171.032 178.104V181.574Z" fill="#A298E2"/>
<path d="M166.489 184.347L156.872 178.8V175.331L166.489 180.878V184.347Z" fill="#A298E2"/>
<path d="M180.89 192.647L168.289 185.391V181.921L180.89 189.178V192.647Z" fill="#F4CE2C"/>
<path d="M166.489 167.696L156.872 162.149V158.675L166.489 164.227V167.696Z" fill="#A298E2"/>
<path d="M185.822 178.8L168.289 168.735V165.271L185.822 175.331V178.8Z" fill="#4D3BFF"/>
<path d="M104.293 71.9573L94.6769 66.4054V62.9361L104.293 68.488V71.9573Z" fill="#A298E2"/>
<path d="M146.954 96.5854L106.093 72.9961V69.5268L146.954 93.1161V96.5854Z" fill="#C33AFC"/>
<path d="M104.293 83.0561L94.6769 77.5042V74.0349L104.293 79.5868V83.0561Z" fill="#A298E2"/>
<path d="M133.132 99.7068L106.093 84.0949V80.6255L133.132 96.2375V99.7068Z" fill="#F4CE2C"/>
<path d="M104.293 88.608L94.6769 83.0561V79.5868L104.293 85.1387V88.608Z" fill="#A298E2"/>
<path d="M139.743 109.071L106.093 89.6468V86.1775L139.743 105.602V109.071Z" fill="#FF8657"/>
<path d="M104.293 94.1549L94.6769 88.608V85.1387L104.293 90.6855V94.1549Z" fill="#A298E2"/>
<path d="M129.526 108.728L106.093 95.1987V91.7294L129.526 105.259V108.728Z" fill="#A298E2"/>
<path d="M104.293 77.5042L94.6769 71.9522V68.488L104.293 74.0348V77.5042Z" fill="#A298E2"/>
<path d="M126.521 90.3427L106.093 78.548V75.0787L126.521 86.8733V90.3427Z" fill="#4D3BFF"/>
<path d="M104.293 99.7068L94.6769 94.1549V90.6855L104.293 96.2375V99.7068Z" fill="#A298E2"/>
<path d="M118.11 107.684L106.093 100.746V97.2762L118.11 104.215V107.684Z" fill="#C33AFC"/>
<path d="M104.293 110.806L94.6769 105.254V101.789L104.293 107.336V110.806Z" fill="#A298E2"/>
<path d="M143.948 133.704L106.093 111.849V108.38L143.948 130.235V133.704Z" fill="#F4CE2C"/>
<path d="M104.293 116.357L94.6769 110.806V107.336L104.293 112.888V116.357Z" fill="#A298E2"/>
<path d="M117.51 123.987L106.093 117.396V113.927L117.51 120.518V123.987Z" fill="#FF8657"/>
<path d="M104.293 121.909L94.6769 116.357V112.888L104.293 118.44V121.909Z" fill="#A298E2"/>
<path d="M139.743 142.372L106.093 122.948V119.479L139.743 138.908V142.372Z" fill="#A298E2"/>
<path d="M104.293 105.259L94.6769 99.7068V96.2375L104.293 101.789V105.259Z" fill="#A298E2"/>
<path d="M137.937 124.683L106.093 106.297V102.828L137.937 121.214V124.683Z" fill="#4D3BFF"/>
<path d="M104.293 127.456L94.6769 121.904V118.44L104.293 123.987V127.456Z" fill="#A298E2"/>
<path d="M110.299 130.926L106.093 128.5V125.031L110.299 127.456V130.926Z" fill="#C33AFC"/>
<path d="M104.293 138.56L94.6769 133.008V129.539L104.293 135.091V138.56Z" fill="#A298E2"/>
<path d="M113.904 144.107L106.093 139.599V136.13L113.904 140.638V144.107Z" fill="#F4CE2C"/>
<path d="M104.293 144.107L94.6769 138.56V135.091L104.293 140.638V144.107Z" fill="#A298E2"/>
<path d="M126.521 156.945L106.093 145.151V141.681L126.521 153.476V156.945Z" fill="#FF8657"/>
<path d="M104.293 149.659L94.6769 144.107V140.638L104.293 146.19V149.659Z" fill="#A298E2"/>
<path d="M138.537 169.431L106.093 150.698V147.228L138.537 165.962V169.431Z" fill="#A298E2"/>
<path d="M104.293 133.008L94.6769 127.456V123.987L104.293 129.539V133.008Z" fill="#A298E2"/>
<path d="M146.954 157.636L106.093 134.047V130.578L146.954 154.167V157.636Z" fill="#4D3BFF"/>
<path opacity="0.4" d="M178.152 287.131C189.804 287.131 199.251 281.676 199.251 274.948C199.251 268.219 189.804 262.765 178.152 262.765C166.5 262.765 157.054 268.219 157.054 274.948C157.054 281.676 166.5 287.131 178.152 287.131Z" fill="#D6D8E5"/>
<path d="M201.323 273.218V240.739L159.212 241.797L159.303 271.751C158.516 275.356 160.513 279.123 165.309 281.891C173.548 286.646 186.906 286.651 195.146 281.891C199.286 279.486 201.343 276.349 201.323 273.218Z" fill="#A6CE28"/>
<path d="M180.225 252.906C191.877 252.906 201.323 247.452 201.323 240.723C201.323 233.995 191.877 228.54 180.225 228.54C168.572 228.54 159.126 233.995 159.126 240.723C159.126 247.452 168.572 252.906 180.225 252.906Z" fill="#BCD64D"/>
<path d="M197.99 240.738C197.99 242.72 196.341 244.803 193.477 246.462C190.35 248.257 186.079 249.366 181.581 249.548C181.132 249.548 180.684 249.578 180.23 249.578C175.238 249.578 170.412 248.439 166.978 246.462C164.114 244.803 162.465 242.72 162.465 240.738C162.465 238.757 164.114 236.674 166.978 235.015C170.412 233.033 175.238 231.894 180.225 231.894C180.679 231.894 181.132 231.894 181.581 231.924C186.079 232.106 190.35 233.215 193.477 235.015C196.341 236.659 197.99 238.721 197.99 240.738Z" fill="#28221C"/>
<path opacity="0.07" d="M197.99 240.738C197.99 242.72 196.341 244.803 193.477 246.462C190.35 248.257 186.079 249.366 181.581 249.548C177.083 249.366 172.807 248.257 169.686 246.462C166.816 244.773 165.168 242.705 165.168 240.738C165.168 238.772 166.811 236.674 169.676 235.015C172.802 233.215 177.078 232.106 181.576 231.924C186.074 232.106 190.345 233.215 193.472 235.015C196.341 236.659 197.99 238.721 197.99 240.738Z" fill="white"/>
<path d="M198.237 255.771L193.759 253.179L191.581 254.439L193.759 255.7V256.527L197.96 258.947L197.834 259.724C198.444 260.228 200.617 264.262 200.617 264.262L200.768 264.121V274.574C200.768 277.318 199.16 276.39 198.474 275.991L193.759 273.268L191.581 274.524L193.759 275.78V276.607L198.474 279.33C198.95 279.615 199.458 279.845 199.987 280.015L199.704 281.326L202.145 279.95H202.18H202.216C203.224 279.355 203.653 277.908 203.653 276.284V265.316C203.673 260.682 200.118 257.046 198.237 255.771Z" fill="#8DA01F"/>
<path d="M196.296 280.605L191.581 277.882V274.524L196.296 277.247C196.981 277.64 198.59 278.573 198.59 275.825V264.908C198.59 262.326 196.255 260.541 195.857 260.258L191.581 257.788V254.439L196.059 257.031C197.944 258.307 201.474 261.948 201.474 266.582V277.509C201.474 280.459 200.128 282.814 196.296 280.605Z" fill="#99B524"/>
<path opacity="0.4" d="M47.8613 222.59C55.8847 222.59 62.389 218.833 62.389 214.199C62.389 209.565 55.8847 205.808 47.8613 205.808C39.8378 205.808 33.3335 209.565 33.3335 214.199C33.3335 218.833 39.8378 222.59 47.8613 222.59Z" fill="#D6D8E5"/>
<path d="M49.9338 221.037C57.9573 221.037 64.4616 217.28 64.4616 212.646C64.4616 208.012 57.9573 204.255 49.9338 204.255C41.9103 204.255 35.406 208.012 35.406 212.646C35.406 217.28 41.9103 221.037 49.9338 221.037Z" fill="#D6D8E5"/>
<path d="M30.4844 183.964L35.5674 213.226H64.4262L69.3831 184.176L30.4844 183.964Z" fill="#D6D8E5"/>
<path d="M49.9338 194.841C60.6865 194.841 69.4033 189.808 69.4033 183.601C69.4033 177.393 60.6865 172.361 49.9338 172.361C39.1811 172.361 30.4643 177.393 30.4643 183.601C30.4643 189.808 39.1811 194.841 49.9338 194.841Z" fill="#E4E6EF"/>
<path d="M49.9338 192.36C45.1635 192.36 40.7159 191.311 37.4079 189.4C34.569 187.766 32.9452 185.648 32.9452 183.601C32.9452 181.553 34.569 179.435 37.4079 177.802C40.7109 175.891 45.1635 174.842 49.9338 174.842C54.7041 174.842 59.1567 175.891 62.4596 177.802C65.2986 179.435 66.9223 181.553 66.9223 183.601C66.9223 185.648 65.3238 187.791 62.4596 189.4C59.1567 191.321 54.7344 192.36 49.9338 192.36Z" fill="#28221C"/>
<path d="M58.3096 174.746C58.5851 170.964 57.983 167.171 56.5502 163.66C55.1174 160.15 52.8927 157.018 50.0498 154.51V154.51L49.9943 154.454V154.56C47.1487 157.069 44.922 160.202 43.4883 163.714C42.0545 167.227 41.4526 171.023 41.7295 174.806L30.5903 173.732C35.29 191.437 50.0498 189.914 50.0498 189.914V189.879C51.1642 189.964 64.9305 190.675 69.4336 173.692L58.3096 174.746Z" fill="#99B524"/>
<path d="M50.0498 189.914C50.0498 189.914 49.0412 176.128 30.545 166.844C30.5298 166.844 26.1629 189.748 50.0498 189.914Z" fill="#A6CE28"/>
<path d="M49.9338 189.914C49.9338 189.914 50.9423 176.128 69.4386 166.844C69.4386 166.844 73.8206 189.748 49.9338 189.914Z" fill="#A6CE28"/>
</g>
<defs>
<clipPath id="clip0_63_789">
<rect width="200" height="252.131" fill="white" transform="translate(27 35)"/>
</clipPath>
</defs>
</svg>
